<svg width="40" height="40" viewBox="0 0 40 40" fill="none" xmlns="http://www.w3.org/2000/svg">
<path d="M3 13H37V37H3V13Z" fill="#FFF7ED" stroke="black" stroke-width="1.5" stroke-linecap="round"/>
<path d="M7 12.5V2H33V12.5" fill="#FFFBEB"/>
<path d="M7 12.5V2H33V12.5" stroke="black" stroke-width="1.5"/>
<path d="M20 4C20.295 4.00089 21.0025 4.14148 21.2757 4.25396C21.5479 4.36732 22.1478 4.76812 22.3572 4.97655C22.5652 5.18542 22.966 5.78528 23.0798 6.05753C23.1918 6.33068 23.3324 7.03809 23.3333 7.33311C23.3324 7.62857 23.1918 8.33599 23.0798 8.60869C22.966 8.88139 22.5652 9.4808 22.3572 9.69012C22.1478 9.89855 21.5479 10.2989 21.2757 10.4127C21.0025 10.5247 20.295 10.6658 20 10.6667C19.705 10.6658 18.9975 10.5247 18.7243 10.4127C18.4521 10.2989 17.8522 9.89811 17.6428 9.69012C17.4348 9.4808 17.034 8.88139 16.9202 8.60869C16.8082 8.33599 16.6676 7.62857 16.6667 7.33311C16.6676 7.03809 16.8082 6.33068 16.9202 6.05753C17.034 5.78528 17.4348 5.18542 17.6428 4.97655C17.8522 4.76812 18.4521 4.36732 18.7243 4.25396C18.9975 4.14148 19.705 4.00089 20 4Z" fill="white" stroke="black" stroke-linecap="round" stroke-linejoin="round"/>
<path d="M13.3333 13.3334V36.6667" stroke="black" stroke-linejoin="round"/>
<path d="M26.6667 13.3334V36.6667" stroke="black" stroke-linejoin="round"/>
<path d="M3.33333 25L36.6667 25" stroke="black" stroke-linejoin="round"/>
<path d="M20 4V7" stroke="black" stroke-linejoin="round"/>
<path d="M19.5 7.5H23" stroke="black" stroke-linejoin="round"/>
</svg>
