<?xml version="1.0" encoding="UTF-8" standalone="no"?>
<!DOCTYPE svg PUBLIC "-//W3C//DTD SVG 1.1//EN" "http://www.w3.org/Graphics/SVG/1.1/DTD/svg11.dtd">
<svg width="96.00" height="96.00" viewBox="0.00 0.00 1600.00 1600.00" xmlns="http://www.w3.org/2000/svg" xmlns:xlink="http://www.w3.org/1999/xlink">
<g stroke-linecap="round" id="レイヤー_7_2">
<path d="M814.50,38.50 C815.10,41.27 816.12,46.01 816.50,46.50 C817.08,47.24 818.25,47.59 818.50,48.50 C818.69,49.22 817.38,50.83 817.44,52.86 C817.44,53.18 817.22,110.97 817.50,114.50 C818.00,120.34 820.50,127.71 820.50,128.50 C820.51,129.25 820.12,132.04 820.50,132.50 C821.08,133.17 916.57,181.55 935.83,190.39 C940.17,192.45 956.96,200.69 957.50,202.50 C957.77,203.43 957.56,206.90 958.50,207.50 C959.11,207.87 971.79,207.64 972.50,208.50 C973.42,209.65 973.15,214.46 973.50,215.50 C973.75,216.20 982.19,214.72 985.50,215.50 C988.89,216.34 1028.66,235.99 1042.67,243.33 C1054.06,249.52 1060.55,253.50 1069.59,260.07 C1075.36,264.25 1092.29,274.67 1094.50,275.50 C1094.99,275.68 1097.79,276.13 1098.50,276.50 C1099.14,276.83 1103.81,280.16 1104.50,280.50 C1105.17,280.84 1107.83,281.16 1108.50,281.50 C1109.23,281.86 1113.92,285.20 1114.50,285.50 C1115.10,285.81 1117.78,286.22 1118.50,286.50 C1119.29,286.81 1130.01,292.88 1132.50,294.00 C1135.48,295.33 1146.73,298.58 1155.81,301.83 C1183.79,311.94 1246.05,334.51 1280.32,346.97 C1315.75,359.88 1378.06,382.63 1404.94,392.47 C1406.88,393.17 1409.66,394.19 1410.50,394.50"  stroke="rgb(0, 0, 0)" stroke-width="24.80" stroke-opacity="1.00" stroke-linejoin="round"/>
<path d="M958.50,207.50 C956.97,208.23 955.27,209.82 954.50,211.50 C953.95,212.73 953.64,221.27 952.96,223.61 C951.95,227.02 947.87,232.76 947.11,233.85 C931.15,256.31 892.13,310.46 869.06,342.17 C846.78,372.44 794.16,443.28 793.95,443.60 C792.77,445.27 791.40,446.42 790.06,446.71 C789.96,446.73 772.82,446.65 772.50,446.50 C771.76,446.13 721.65,379.83 700.15,351.42 C675.20,318.43 631.88,260.84 613.51,236.25 C610.03,231.53 600.52,218.55 600.50,218.50 C599.76,216.68 600.25,212.60 600.42,211.50 C600.56,210.61 600.46,206.54 600.29,205.76 C600.08,204.84 599.59,201.58 600.50,200.50 C602.02,198.80 686.17,158.81 717.44,143.75 C723.45,140.83 736.51,134.50 743.56,131.07 C749.02,128.39 752.13,126.58 753.98,124.57 C755.74,122.57 757.27,117.24 757.29,113.33 C757.28,112.40 757.67,92.92 758.53,81.79 C759.46,69.92 759.11,58.22 759.50,54.50 C759.86,51.18 760.24,48.92 760.58,46.87 C760.92,44.46 760.42,42.34 759.50,42.50 C759.03,42.61 695.46,93.99 668.29,116.17 C636.68,142.24 580.60,188.45 556.15,208.57 C546.85,216.20 521.47,236.83 512.57,243.30 C505.73,248.09 497.98,251.73 495.19,254.04 C491.47,257.11 452.09,277.24 451.82,277.39 C449.90,278.43 447.50,278.40 446.50,278.50 C446.26,278.53 364.57,308.07 328.98,320.99 C297.02,332.69 228.22,358.20 191.39,372.00 C180.49,376.17 162.23,382.91 162.05,383.00 C159.92,383.90 154.52,382.43 153.50,382.50 C153.00,382.53 152.00,382.87 150.50,383.50"  stroke="rgb(0, 0, 0)" stroke-width="24.80" stroke-opacity="1.00" stroke-linejoin="round"/>
<path d="M818.50,48.50 C836.94,64.38 882.46,103.57 909.54,126.88 C941.17,154.11 996.63,201.87 1020.47,222.40 C1029.15,229.87 1039.67,238.92 1041.50,240.50"  stroke="rgb(0, 0, 0)" stroke-width="24.80" stroke-opacity="1.00" stroke-linejoin="round"/>
<path d="M973.50,215.50 C971.94,216.78 969.87,218.70 969.50,219.50 C969.41,219.69 969.07,222.91 968.50,223.50 C967.92,224.09 963.17,225.89 962.95,226.01 C960.02,227.57 955.81,233.47 955.04,234.51 C938.78,256.86 899.51,311.40 876.49,343.59 C856.55,371.47 814.27,430.40 802.33,445.75 C800.48,448.16 796.78,453.85 796.50,454.50 C795.13,457.79 795.60,464.54 795.50,466.50 C795.39,468.89 794.80,470.90 794.78,471.76 C794.77,473.23 795.69,474.82 797.21,476.25 C797.49,476.50 866.99,544.29 892.70,569.05 C894.84,571.12 900.78,576.84 900.79,576.85 C902.81,578.88 907.15,580.30 909.17,580.92 C939.33,590.16 1002.68,609.43 1035.87,619.45 C1038.68,620.26 1046.05,622.42 1046.50,622.50 C1049.71,623.08 1057.31,622.32 1058.50,622.50 C1059.60,622.66 1063.55,623.08 1064.50,622.50 C1065.06,622.14 1101.71,543.91 1114.25,517.16 C1131.10,481.31 1162.15,414.73 1176.35,384.01 C1179.04,378.05 1184.08,366.80 1186.43,361.52 C1186.96,360.31 1189.87,353.88 1190.51,349.87 C1190.98,346.82 1190.36,337.89 1190.50,336.50 C1190.65,334.76 1190.36,334.28 1188.50,333.12 C1188.13,332.90 1134.50,296.19 1133.50,295.50"  stroke="rgb(0, 0, 0)" stroke-width="24.80" stroke-opacity="1.00" stroke-linejoin="round"/>
<path d="M524.50,236.50 C538.21,229.74 562.00,218.30 564.50,217.50 C567.46,216.58 570.72,216.17 572.33,216.55 C575.02,217.40 580.97,217.29 581.84,217.39 C583.32,217.60 584.79,218.73 585.98,220.38 C586.20,220.70 639.64,290.01 662.20,319.52 C686.50,351.44 728.50,406.52 746.19,429.68 C749.57,434.08 757.84,444.85 763.04,450.77 C765.46,453.54 768.96,458.89 769.40,461.71 C769.62,463.22 769.69,472.57 769.72,473.61 C769.77,475.55 769.39,476.88 768.37,478.48 C768.35,478.52 762.01,488.66 760.92,490.28 C756.14,497.28 745.28,509.06 739.51,514.31 C736.45,517.08 701.94,547.21 688.96,558.95 C682.84,564.59 668.74,577.39 668.50,577.50 C667.88,577.79 664.66,577.49 664.50,577.50 C663.65,577.58 621.79,591.08 605.66,596.41 C597.54,599.26 579.28,605.82 577.88,606.20 C571.40,607.92 557.02,609.68 546.63,610.51 C537.10,611.04 516.84,611.65 516.50,611.50 C515.00,610.79 513.46,605.36 505.44,585.26 C494.22,557.37 467.66,491.63 452.32,453.78 C438.20,418.87 414.18,359.23 404.28,334.50 C403.80,333.30 401.10,326.73 401.21,324.41 C401.26,323.57 401.68,321.05 401.50,319.50 C401.34,317.95 400.39,314.62 400.40,314.38 C400.46,312.92 401.80,311.11 403.56,309.79 C411.56,303.76 444.47,281.87 447.50,279.50"  stroke="rgb(0, 0, 0)" stroke-width="24.80" stroke-opacity="1.00" stroke-linejoin="round"/>
<path d="M951.50,227.50 C951.50,227.50 959.50,228.50 959.50,228.50"  stroke="rgb(0, 0, 0)" stroke-width="24.80" stroke-opacity="1.00" stroke-linejoin="round"/>
<path d="M232.50,422.50 C257.06,406.20 309.06,371.70 336.50,353.50 C346.48,346.94 363.60,335.73 366.54,334.17 C368.01,333.39 373.57,330.93 376.86,330.59 C378.81,330.40 387.85,331.77 388.50,332.50 C388.70,332.73 420.66,410.95 434.32,444.25 C449.90,482.27 476.92,548.35 488.37,576.41 C490.54,581.77 496.50,596.48 496.50,596.50 C496.62,597.08 496.51,603.88 497.08,608.69 C497.28,610.83 497.09,613.68 496.50,614.50 C495.78,615.41 493.27,616.19 491.19,616.27 C483.76,616.30 401.87,624.47 365.70,628.14 C329.40,631.76 262.13,638.39 231.15,641.38 C213.71,642.94 201.31,642.73 200.45,642.72 C198.79,642.65 197.74,642.08 197.50,640.96 C196.99,638.09 199.27,601.38 200.42,586.21 C201.99,567.59 204.81,533.62 206.06,518.28 C206.90,507.26 207.46,490.57 207.50,490.50 C207.75,490.10 208.63,489.95 208.50,489.50 C208.50,489.50 205.22,487.38 204.50,486.50 C204.08,486.01 202.72,483.54 201.50,482.50 C200.22,481.42 138.90,445.27 132.50,441.50"  stroke="rgb(0, 0, 0)" stroke-width="24.80" stroke-opacity="1.00" stroke-linejoin="round"/>
<path d="M160.50,383.50 C189.24,398.74 228.38,419.45 228.50,419.50 C229.42,419.89 232.01,421.15 232.50,422.50 C233.05,424.09 234.26,431.11 234.50,432.50"  stroke="rgb(0, 0, 0)" stroke-width="24.80" stroke-opacity="1.00" stroke-linejoin="round"/>
<path d="M1424.50,392.50 C1421.13,393.03 1412.88,394.39 1409.50,395.50 C1408.64,395.79 1345.83,430.92 1337.50,435.50"  stroke="rgb(0, 0, 0)" stroke-width="24.80" stroke-opacity="1.00" stroke-linejoin="round"/>
<path d="M124.50,429.50 C126.41,431.92 130.93,437.80 132.50,441.50 C133.87,444.80 138.95,479.48 140.97,490.95 C146.45,521.82 159.16,593.05 166.39,633.40 C172.53,667.63 182.58,723.68 186.50,745.50"  stroke="rgb(0, 0, 0)" stroke-width="24.80" stroke-opacity="1.00" stroke-linejoin="round"/>
<path d="M1335.50,446.50 C1335.14,445.40 1335.00,443.65 1335.50,442.50 C1335.98,441.34 1338.00,436.87 1337.50,435.50 C1337.14,434.59 1258.18,380.66 1229.14,361.02 C1226.85,359.46 1220.38,354.90 1220.08,354.74 C1216.62,352.96 1202.28,352.81 1200.50,353.50 C1199.03,354.12 1197.12,356.03 1196.36,357.62 C1191.19,369.68 1159.49,439.76 1143.80,474.38 C1130.91,502.69 1105.23,558.71 1092.45,586.41 C1089.46,593.18 1083.18,607.78 1082.50,612.50 C1082.04,615.95 1083.18,626.05 1083.21,626.48 C1083.36,628.38 1083.54,628.53 1085.50,628.50 C1086.74,628.45 1176.13,640.71 1212.39,645.71 C1246.81,650.37 1312.43,659.25 1343.63,663.47 C1364.53,666.21 1376.50,667.35 1381.55,666.95 C1383.05,666.78 1384.45,665.84 1384.73,664.65 C1385.63,660.41 1380.75,576.54 1378.78,544.69 C1378.44,535.41 1375.07,505.93 1375.03,502.68 C1375.01,498.88 1376.26,493.11 1377.86,491.18 C1378.06,490.96 1442.03,449.69 1448.50,445.50"  stroke="rgb(0, 0, 0)" stroke-width="24.80" stroke-opacity="1.00" stroke-linejoin="round"/>
<path d="M1453.50,438.50 C1452.75,439.50 1448.49,445.14 1448.50,445.50 C1448.53,446.25 1449.34,446.77 1449.50,447.50 C1449.53,447.62 1435.45,528.97 1429.47,563.25 C1422.21,604.51 1409.14,678.54 1403.34,711.31 C1395.91,752.89 1393.11,763.27 1392.50,765.50"  stroke="rgb(0, 0, 0)" stroke-width="24.80" stroke-opacity="1.00" stroke-linejoin="round"/>
<path d="M993.50,777.50 C992.25,778.01 988.68,779.43 987.94,779.92 C986.51,780.90 984.85,783.59 984.53,785.32 C984.26,787.03 984.33,790.47 984.63,792.17 C984.94,793.65 986.50,795.94 987.68,796.51 C988.63,796.95 992.26,798.05 993.50,799.50 C994.40,800.56 1012.49,840.92 1020.05,858.28 C1027.35,874.49 1045.53,913.63 1046.76,917.09 C1047.93,920.49 1048.92,928.09 1048.05,932.46 C1048.04,932.54 1046.86,937.04 1046.50,937.50 C1045.57,938.60 1044.25,938.87 1041.75,938.59 C1038.50,938.19 946.54,950.50 912.41,955.13 C905.57,956.06 890.35,958.08 889.01,958.74 C887.01,959.76 882.42,965.48 881.52,966.58 C860.00,993.65 818.82,1045.83 799.16,1070.94 C797.83,1072.72 794.10,1077.91 791.70,1081.31 C790.52,1082.89 788.10,1084.85 786.50,1085.50 C784.60,1086.22 777.68,1086.36 773.07,1085.96 C771.21,1085.76 768.71,1084.81 767.66,1083.80 C767.36,1083.51 757.97,1069.10 754.40,1063.98 C732.92,1033.49 682.68,962.58 682.50,962.50 C681.89,962.23 681.10,962.79 680.50,962.50 C679.64,962.11 678.19,960.27 676.69,960.05 C667.68,958.38 582.35,949.98 545.54,946.36 C539.47,945.71 528.73,944.61 528.50,944.50 C527.67,944.07 527.46,939.03 526.92,934.72 C526.70,932.46 526.96,928.64 527.50,926.50 C528.21,923.76 564.60,836.11 578.90,802.11 C581.23,796.59 585.43,786.77 585.50,786.50 C585.84,785.18 584.59,782.28 582.60,777.42 C570.06,746.62 544.96,684.08 532.41,652.34 C531.89,650.96 529.19,643.85 528.72,640.37 C528.31,637.17 529.24,628.95 529.50,628.50 C530.59,626.78 534.55,626.50 539.60,626.06 C572.52,623.08 638.41,617.04 671.37,613.99 C673.63,613.77 680.38,612.84 682.06,611.68 C683.86,610.40 692.85,598.05 696.58,592.91 C718.29,562.76 769.85,491.74 770.06,491.42 C771.26,489.72 772.53,488.60 773.92,488.40 C774.66,488.30 791.14,488.31 791.50,488.50 C791.56,488.53 848.92,563.11 870.52,591.28 C874.01,595.89 886.29,612.19 888.00,613.69 C890.25,615.61 895.38,617.26 898.48,617.67 C930.00,622.02 993.01,630.93 1024.50,635.50 C1035.93,637.21 1040.69,637.75 1044.27,638.08 C1045.89,638.26 1047.55,638.95 1048.28,639.91 C1049.40,641.49 1050.56,650.08 1050.35,652.15 C1049.98,655.62 1046.76,662.92 1046.16,664.30 C1033.46,692.34 1001.77,759.45 993.52,775.67 C992.91,777.03 993.91,777.79 995.69,777.56 C998.53,777.18 1000.51,777.43 1001.50,778.50 C1002.58,779.76 1001.87,787.16 1001.50,790.50 C1001.31,792.70 1001.17,795.88 1001.08,796.80 C1000.92,798.12 999.84,799.05 998.67,798.92 C997.94,798.82 995.79,798.58 993.50,799.50"  stroke="rgb(0, 0, 0)" stroke-width="24.80" stroke-opacity="1.00" stroke-linejoin="round"/>
<path d="M194.50,911.50 C195.98,909.81 197.01,909.21 198.75,909.33 C202.90,909.61 209.76,909.05 210.50,909.50 C210.55,909.53 213.44,912.93 214.50,913.50 C214.88,913.70 231.41,914.40 240.13,915.21 C270.21,918.17 335.74,924.73 371.19,928.33 C406.41,931.92 478.19,939.12 494.29,939.99 C497.22,940.13 502.33,940.39 504.50,940.50 C506.28,940.54 508.06,940.18 508.50,939.50 C508.61,939.32 509.24,932.46 510.07,929.09 C518.07,896.95 538.77,814.56 541.82,800.50 C543.33,792.86 544.25,785.41 543.64,779.65 C542.94,773.41 534.65,737.17 530.87,720.73 C522.32,684.47 509.58,631.64 509.50,631.50 C508.77,630.39 507.12,629.99 504.84,630.24 C500.74,630.75 465.24,632.00 448.04,633.50 C416.80,636.46 351.42,642.61 317.29,645.81 C298.41,647.50 261.69,650.69 243.84,652.20 C229.80,653.32 197.26,655.84 196.05,656.57 C194.97,657.27 194.38,658.84 194.25,661.01 C194.23,661.34 188.59,744.40 188.50,744.50 C188.03,745.08 186.96,744.92 186.50,745.50 C186.27,745.81 188.66,769.12 188.51,776.29 C188.45,779.06 187.44,788.93 187.50,789.50 C187.60,790.39 188.45,794.02 188.50,795.50 C188.52,796.21 187.27,805.38 186.73,809.10 C186.41,811.14 187.38,812.77 187.50,813.50 C187.58,813.94 186.54,818.40 186.50,819.50 C186.46,820.38 187.69,828.09 187.85,830.12 C189.89,858.25 194.53,923.47 197.14,960.57 C198.20,975.80 200.74,1012.68 202.23,1034.32 C203.14,1048.84 204.48,1076.66 204.50,1076.88 C204.63,1078.24 204.02,1079.44 202.63,1080.35 C201.95,1080.79 201.12,1080.98 200.50,1081.50 C200.04,1081.87 198.61,1084.51 197.50,1085.50 C196.39,1086.49 134.58,1122.54 129.50,1125.50"  stroke="rgb(0, 0, 0)" stroke-width="24.80" stroke-opacity="1.00" stroke-linejoin="round"/>
<path d="M1444.50,1134.50 C1445.40,1133.06 1445.56,1132.16 1445.13,1130.19 C1445.04,1129.79 1431.90,1049.17 1426.39,1015.63 C1419.58,974.38 1407.10,898.39 1401.43,863.65 C1399.20,849.73 1395.13,824.20 1393.29,812.59 C1392.09,804.89 1391.31,793.84 1391.35,784.54 C1391.48,778.64 1392.73,769.34 1392.18,759.75 C1389.61,725.71 1386.62,686.71 1386.50,686.50 C1386.39,686.31 1380.12,686.20 1378.13,685.96 C1348.39,681.74 1284.10,672.52 1249.56,667.51 C1218.19,663.04 1154.07,653.85 1121.32,649.13 C1113.01,647.92 1097.85,645.77 1091.00,644.82 C1081.21,643.55 1069.70,642.76 1066.50,644.50 C1065.19,645.28 1062.88,652.50 1061.07,656.71 C1059.40,660.58 1055.73,668.18 1054.81,669.75 C1053.00,672.87 1051.86,677.29 1051.31,679.68 C1048.00,694.66 1040.49,729.08 1036.29,748.53 C1030.73,773.78 1028.71,779.39 1028.50,780.50 C1027.73,784.68 1029.44,798.85 1031.22,807.08 C1034.57,821.14 1041.56,854.68 1044.86,871.28 C1046.35,878.41 1050.47,897.28 1052.27,902.31 C1054.39,908.14 1061.90,924.35 1062.50,926.50 C1063.57,930.24 1064.35,931.93 1065.50,932.50 C1069.15,934.18 1098.07,931.24 1119.48,928.53 C1153.15,924.05 1221.71,914.94 1256.59,910.31 C1288.79,906.10 1351.38,897.94 1381.77,894.00 C1383.50,893.74 1385.31,893.64 1385.50,893.50 C1386.50,892.71 1386.67,888.95 1387.06,883.33 C1389.58,849.94 1392.31,814.02 1392.50,811.50"  stroke="rgb(0, 0, 0)" stroke-width="24.80" stroke-opacity="1.00" stroke-linejoin="round"/>
<path d="M1005.50,777.50 C1007.20,776.80 1014.80,776.77 1020.74,777.17 C1023.05,777.34 1024.40,777.86 1024.57,778.84 C1024.70,779.72 1025.49,791.10 1025.53,791.76 C1025.61,793.50 1025.10,796.61 1024.50,797.50 C1023.60,798.70 1021.33,799.42 1019.17,799.22 C1017.99,799.09 1014.24,798.54 1012.50,798.50 C1010.21,798.43 1007.13,798.95 1006.22,798.79 C1005.17,798.57 1004.07,796.74 1004.02,795.28 C1004.00,794.16 1004.75,784.74 1004.05,782.02 C1003.63,780.27 1003.42,779.36 1003.44,779.29 C1003.65,778.64 1004.33,778.04 1005.50,777.50 Z"  stroke="rgb(0, 0, 0)" stroke-width="24.80" stroke-opacity="1.00" stroke-linejoin="round"/>
<path d="M186.50,819.50 C181.98,843.06 170.90,900.76 164.34,934.91 C156.41,976.30 142.23,1050.53 135.99,1083.38 C133.65,1095.83 128.50,1123.49 128.50,1123.50 C128.66,1124.23 129.49,1124.76 129.50,1125.50 C129.50,1125.68 123.34,1133.85 121.04,1137.06 C118.95,1140.03 119.09,1142.58 119.50,1143.50"  stroke="rgb(0, 0, 0)" stroke-width="24.80" stroke-opacity="1.00" stroke-linejoin="round"/>
<path d="M214.50,913.50 C214.50,913.50 214.50,924.50 214.50,924.50"  stroke="rgb(0, 0, 0)" stroke-width="24.80" stroke-opacity="1.00" stroke-linejoin="round"/>
<path d="M1418.50,1188.50 C1417.35,1188.34 1410.67,1187.37 1406.50,1185.50 C1401.99,1183.45 1336.18,1145.03 1334.50,1144.50 C1332.97,1144.07 1330.56,1145.80 1326.22,1148.72 C1313.97,1156.91 1285.42,1175.98 1269.13,1186.85 C1256.32,1195.47 1217.80,1222.11 1217.14,1222.48 C1214.44,1223.93 1208.67,1225.57 1205.21,1225.36 C1201.93,1224.98 1194.69,1224.63 1194.50,1224.50 C1194.49,1224.49 1158.28,1142.63 1142.51,1106.97 C1128.09,1074.45 1094.78,999.66 1087.93,985.80 C1086.55,982.98 1084.45,978.05 1083.33,974.99 C1082.23,971.92 1080.81,965.04 1080.70,960.91 C1080.65,955.95 1080.43,950.79 1080.56,950.05 C1080.80,948.89 1081.72,948.39 1083.52,948.21 C1083.85,948.18 1175.22,936.52 1211.98,931.95 C1247.81,927.52 1309.57,919.79 1335.50,916.50 C1339.56,915.93 1350.95,914.48 1361.62,914.28 C1370.57,914.20 1383.37,914.43 1383.50,914.50 C1384.16,914.86 1383.45,918.76 1383.20,922.12 C1381.42,952.35 1377.11,1019.79 1374.57,1057.02 C1374.05,1064.06 1372.62,1084.25 1372.50,1084.50 C1372.30,1084.93 1371.49,1085.03 1371.50,1085.50 C1371.53,1085.98 1373.78,1086.93 1374.50,1088.50 C1375.00,1089.54 1375.85,1094.74 1376.10,1095.34 C1376.80,1096.99 1379.66,1099.49 1381.54,1100.23 C1383.27,1100.86 1388.31,1101.87 1389.65,1102.12 C1392.08,1102.57 1393.08,1102.40 1394.50,1101.50"  stroke="rgb(0, 0, 0)" stroke-width="24.80" stroke-opacity="1.00" stroke-linejoin="round"/>
<path d="M195.50,929.50 C197.80,927.80 199.11,927.25 201.11,927.42 C201.52,927.46 206.32,927.70 208.05,927.74 C209.80,927.77 211.62,927.07 212.89,925.96 C213.43,925.48 214.73,924.41 216.25,924.62 C216.48,924.66 308.33,935.22 342.11,939.00 C376.66,942.70 442.73,949.83 474.25,953.25 C477.10,953.55 482.32,954.06 484.70,954.27 C488.41,954.52 490.97,953.72 492.23,953.84 C493.70,954.02 494.74,955.98 494.77,957.91 C494.80,961.38 494.57,975.25 494.50,975.50 C494.45,975.69 461.16,1054.42 446.97,1087.95 C430.97,1125.69 403.36,1190.87 391.75,1218.30 C390.63,1220.97 388.45,1226.14 387.39,1228.64 C385.43,1233.29 384.12,1236.69 382.50,1237.50 C382.22,1237.63 372.45,1237.95 369.98,1237.59 C365.65,1236.91 360.48,1234.49 355.86,1231.68 C338.76,1220.84 275.33,1176.99 248.85,1158.52 C239.83,1152.26 228.83,1145.50 228.50,1145.50 C228.44,1145.50 188.06,1166.28 172.31,1174.41 C163.62,1178.95 160.24,1181.05 156.50,1183.50"  stroke="rgb(0, 0, 0)" stroke-width="24.80" stroke-opacity="1.00" stroke-linejoin="round"/>
<path d="M442.50,1290.50 C429.42,1281.56 398.71,1260.71 398.50,1260.50 C397.45,1259.39 397.49,1255.67 397.33,1248.79 C397.25,1245.39 397.44,1237.01 398.44,1234.73 C398.75,1234.06 400.68,1232.09 401.50,1230.50 C401.78,1229.98 434.18,1152.07 447.87,1119.03 C463.77,1080.55 491.71,1013.08 503.76,984.09 C508.19,973.53 514.33,958.70 514.50,958.50 C515.08,957.87 519.68,958.74 523.28,958.94 C533.97,959.45 549.32,960.66 551.74,960.91 C559.19,961.70 571.17,964.42 579.27,967.11 C609.89,977.31 648.47,990.39 656.44,993.28 C659.63,994.39 665.36,994.91 666.50,995.50 C667.48,996.02 747.23,1069.16 747.50,1069.50 C747.83,1069.92 750.16,1074.65 753.45,1078.94 C755.97,1082.22 762.29,1090.61 762.68,1091.19 C764.64,1094.13 766.16,1100.23 766.18,1104.16 C766.18,1105.57 765.93,1109.47 765.81,1111.05 C765.67,1112.89 764.88,1115.64 763.93,1117.01 C763.26,1117.96 753.36,1129.80 749.87,1134.21 C731.64,1157.38 688.38,1212.42 663.36,1244.30 C640.03,1274.07 600.38,1324.75 584.06,1345.64 C580.99,1349.59 578.22,1353.15 577.50,1353.50 C577.37,1353.56 560.20,1353.82 559.53,1353.85 C558.08,1353.91 525.19,1337.38 517.50,1333.50"  stroke="rgb(0, 0, 0)" stroke-width="24.80" stroke-opacity="1.00" stroke-linejoin="round"/>
<path d="M956.50,979.50 C956.61,976.57 956.90,969.38 957.16,965.91 C957.33,963.93 957.88,962.64 958.79,962.72 C959.72,962.82 962.12,963.63 964.24,963.59 C967.54,963.56 976.14,963.55 977.50,964.50 C978.91,965.58 979.09,967.61 978.15,970.15 C977.41,972.05 977.57,972.89 978.50,973.50"  stroke="rgb(0, 0, 0)" stroke-width="24.80" stroke-opacity="1.00" stroke-linejoin="round"/>
<path d="M1373.50,1087.50 C1373.72,1086.07 1374.14,1084.13 1374.50,1083.50 C1375.08,1082.54 1379.48,1082.51 1384.76,1082.70 C1387.57,1082.81 1390.53,1083.02 1392.19,1083.15 C1394.10,1083.33 1395.36,1083.92 1395.30,1084.84 C1395.20,1085.76 1394.34,1088.18 1394.24,1090.54 C1394.02,1095.33 1394.34,1102.47 1395.70,1104.01 C1395.98,1104.31 1411.87,1113.46 1418.49,1117.56 C1426.20,1122.44 1443.66,1133.79 1444.50,1134.50 C1447.14,1136.78 1449.00,1140.55 1449.50,1141.50"  stroke="rgb(0, 0, 0)" stroke-width="24.80" stroke-opacity="1.00" stroke-linejoin="round"/>
<path d="M755.50,1547.50 C755.09,1544.66 753.91,1536.74 753.50,1535.50 C752.88,1533.57 751.41,1531.93 751.50,1531.50 C751.66,1530.77 752.60,1529.16 752.43,1527.09 C752.41,1526.77 750.05,1478.39 749.19,1462.16 C748.56,1451.96 748.10,1448.66 746.50,1447.50 C746.12,1447.23 660.60,1404.65 625.45,1387.16 C613.38,1381.07 597.01,1372.77 596.64,1372.60 C594.68,1371.66 594.02,1371.06 594.10,1370.03 C594.67,1364.33 594.44,1351.62 594.50,1351.50 C594.94,1350.66 600.22,1344.75 601.00,1343.75 C618.19,1321.59 659.79,1267.80 684.19,1236.17 C703.75,1210.80 741.25,1162.34 759.19,1139.25 C762.22,1135.21 766.48,1129.08 767.50,1128.23 C768.88,1127.14 771.47,1126.15 773.33,1125.94 C776.55,1125.65 785.77,1126.24 786.50,1126.50 C788.56,1127.27 789.87,1128.63 791.50,1131.50 C791.64,1131.76 842.17,1202.52 863.84,1232.81 C886.76,1264.87 925.44,1319.16 941.20,1341.38 C941.94,1342.44 943.89,1345.23 944.12,1345.54 C945.91,1347.89 946.71,1354.46 947.50,1356.55 C948.41,1358.94 948.59,1360.01 948.40,1361.58 C948.17,1363.50 950.35,1366.22 951.50,1367.50"  stroke="rgb(0, 0, 0)" stroke-width="24.80" stroke-opacity="1.00" stroke-linejoin="round"/>
<path d="M1127.50,1282.50 C1128.98,1283.44 1129.82,1283.54 1131.50,1282.83 C1131.82,1282.69 1215.06,1253.75 1249.90,1241.51 C1284.27,1229.32 1350.75,1205.58 1382.86,1194.04 C1392.90,1190.41 1404.72,1186.14 1406.50,1185.50"  stroke="rgb(0, 0, 0)" stroke-width="24.80" stroke-opacity="1.00" stroke-linejoin="round"/>
<path d="M143.50,1184.50 C144.58,1183.83 145.25,1183.49 145.50,1183.50 C145.97,1183.51 146.06,1184.33 146.50,1184.50 C146.89,1184.64 151.32,1183.40 152.29,1183.32 C155.58,1183.03 161.60,1185.28 162.69,1185.66 C184.70,1193.85 249.55,1219.00 284.50,1232.50 C317.72,1245.06 382.43,1269.37 413.92,1281.11 C419.55,1283.20 429.82,1287.02 434.48,1288.75 C442.72,1291.84 447.85,1294.15 456.46,1298.65 C482.85,1312.59 498.30,1321.12 507.83,1328.08 C514.03,1332.62 575.53,1383.73 602.53,1406.26 C632.15,1431.10 683.86,1474.47 705.94,1492.99 C719.88,1504.77 742.66,1524.03 751.50,1531.50"  stroke="rgb(0, 0, 0)" stroke-width="24.80" stroke-opacity="1.00" stroke-linejoin="round"/>
<path d="M1035.50,1334.50 C1036.18,1333.53 1037.59,1333.41 1037.50,1334.50 C1037.48,1334.71 1037.15,1335.05 1036.50,1335.50"  stroke="rgb(0, 0, 0)" stroke-width="24.80" stroke-opacity="1.00" stroke-linejoin="round"/>
<path d="M1036.50,1335.50 C1017.81,1351.21 971.68,1390.00 944.24,1413.06 C912.19,1440.01 855.97,1487.27 831.81,1507.58 C823.01,1514.98 812.36,1523.94 810.50,1525.50"  stroke="rgb(0, 0, 0)" stroke-width="24.80" stroke-opacity="1.00" stroke-linejoin="round"/>
<path d="M945.50,1347.50 C947.73,1347.14 951.93,1346.31 952.50,1346.50 C953.40,1346.80 955.00,1348.97 956.86,1349.71 C957.97,1350.18 961.93,1351.91 962.50,1352.50 C963.24,1353.29 963.29,1355.86 963.50,1356.50 C963.74,1357.27 965.35,1359.25 966.50,1360.50"  stroke="rgb(0, 0, 0)" stroke-width="24.80" stroke-opacity="1.00" stroke-linejoin="round"/>
<path d="M952.50,1346.50 C938.34,1326.33 903.11,1276.15 882.03,1246.14 C858.59,1212.75 818.35,1155.40 801.55,1131.44 C798.43,1126.97 792.64,1118.71 792.50,1118.50 C791.45,1116.85 791.51,1114.38 791.46,1108.36 C791.45,1106.28 791.35,1098.72 791.50,1098.50 C791.94,1097.90 793.82,1097.32 795.25,1095.88 C795.51,1095.62 865.70,1029.24 891.31,1005.03 C899.21,997.73 902.52,995.11 904.61,994.37 C904.67,994.35 956.26,979.40 956.50,979.50 C957.37,979.87 957.70,981.01 958.50,981.50 C958.89,981.74 969.69,980.46 970.50,980.50 C972.38,980.56 972.77,980.35 973.66,978.71 C974.61,976.97 976.84,974.49 978.50,973.50 C980.08,972.58 1024.25,959.69 1038.77,955.88 C1044.07,954.58 1050.09,953.48 1053.45,953.55 C1054.38,953.58 1061.76,954.61 1063.49,955.96 C1065.03,957.20 1071.79,972.86 1074.58,979.11 C1085.53,1003.35 1112.14,1062.11 1127.80,1096.65 C1143.66,1131.69 1170.50,1191.20 1181.47,1215.68 C1182.00,1216.86 1185.00,1223.40 1185.22,1226.27 C1185.29,1227.27 1185.89,1236.56 1186.13,1238.17 C1186.31,1240.14 1185.55,1243.15 1184.50,1244.50 C1182.93,1246.43 1145.94,1270.59 1130.08,1280.67 C1124.06,1284.33 1109.25,1293.31 1102.38,1295.83 C1095.47,1298.25 1088.91,1302.87 1087.38,1303.06 C1085.88,1303.22 1084.34,1305.07 1083.50,1305.50 C1082.91,1305.81 1081.22,1305.55 1079.70,1306.62 C1079.47,1306.78 1062.12,1317.92 1054.80,1322.66 C1046.86,1327.47 1030.79,1336.51 1023.23,1340.49 C1007.67,1348.32 986.12,1357.68 980.81,1359.70 C979.03,1360.39 976.54,1360.89 974.57,1360.86 C973.39,1360.84 966.70,1359.92 966.50,1360.50 C966.15,1361.58 966.45,1366.43 965.50,1367.50 C964.79,1368.28 951.99,1367.08 951.50,1367.50 C950.75,1368.19 951.83,1372.40 951.50,1373.50 C951.31,1374.15 866.13,1415.34 832.99,1431.12 C827.53,1433.72 814.08,1440.13 813.50,1441.50 C813.31,1441.97 812.76,1446.28 812.50,1447.50 C812.29,1448.57 810.47,1454.07 810.41,1458.24 C810.36,1465.20 810.57,1485.74 810.50,1487.50 C810.39,1490.17 809.50,1493.92 809.43,1498.15 C809.41,1506.11 809.42,1517.15 809.77,1525.42 C809.82,1527.09 806.93,1533.32 806.50,1535.50 C806.07,1537.76 806.43,1542.53 806.50,1543.50"  stroke="rgb(0, 0, 0)" stroke-width="24.80" stroke-opacity="1.00" stroke-linejoin="round"/>
<path d="M740.83,75.38 L588.00,203.56"  stroke="rgb(0, 0, 0)" stroke-width="15.00" stroke-opacity="1.00" stroke-linejoin="round"/>
<path d="M733.14,1497.71 L581.71,1367.89"  stroke="rgb(0, 0, 0)" stroke-width="15.00" stroke-opacity="1.00" stroke-linejoin="round"/>
<path d="M1424.28,1103.65 L1389.68,907.21"  stroke="rgb(0, 0, 0)" stroke-width="15.00" stroke-opacity="1.00" stroke-linejoin="round"/>
<path d="M1427.67,476.89 L1390.95,672.94"  stroke="rgb(0, 0, 0)" stroke-width="15.00" stroke-opacity="1.00" stroke-linejoin="round"/>
<path d="M192.05,1181.40 L379.47,1249.66"  stroke="rgb(0, 0, 0)" stroke-width="15.00" stroke-opacity="1.00" stroke-linejoin="round"/>
<path d="M196.35,385.83 L384.49,319.60"  stroke="rgb(0, 0, 0)" stroke-width="15.00" stroke-opacity="1.00" stroke-linejoin="round"/>
<path d="M748.87,83.45 L620.14,182.95"  stroke="rgb(0, 0, 0)" stroke-width="15.00" stroke-opacity="1.00" stroke-linejoin="round"/>
<path d="M741.27,1489.73 L613.63,1388.85"  stroke="rgb(0, 0, 0)" stroke-width="15.00" stroke-opacity="1.00" stroke-linejoin="round"/>
<path d="M1413.27,1106.57 L1391.47,945.35"  stroke="rgb(0, 0, 0)" stroke-width="15.00" stroke-opacity="1.00" stroke-linejoin="round"/>
<path d="M1416.69,473.84 L1393.15,634.83"  stroke="rgb(0, 0, 0)" stroke-width="15.00" stroke-opacity="1.00" stroke-linejoin="round"/>
<path d="M195.02,1170.40 L345.55,1232.14"  stroke="rgb(0, 0, 0)" stroke-width="15.00" stroke-opacity="1.00" stroke-linejoin="round"/>
<path d="M199.19,396.86 L350.38,336.75"  stroke="rgb(0, 0, 0)" stroke-width="15.00" stroke-opacity="1.00" stroke-linejoin="round"/>
<path d="M750.44,102.78 L619.02,185.52"  stroke="rgb(0, 0, 0)" stroke-width="15.00" stroke-opacity="1.00" stroke-linejoin="round"/>
<path d="M743.06,1470.42 L612.54,1386.27"  stroke="rgb(0, 0, 0)" stroke-width="15.00" stroke-opacity="1.00" stroke-linejoin="round"/>
<path d="M1395.74,1098.28 L1389.80,943.09"  stroke="rgb(0, 0, 0)" stroke-width="15.00" stroke-opacity="1.00" stroke-linejoin="round"/>
<path d="M1399.07,481.95 L1391.46,637.06"  stroke="rgb(0, 0, 0)" stroke-width="15.00" stroke-opacity="1.00" stroke-linejoin="round"/>
<path d="M210.97,1159.37 L348.33,1231.82"  stroke="rgb(0, 0, 0)" stroke-width="15.00" stroke-opacity="1.00" stroke-linejoin="round"/>
<path d="M215.03,408.06 L353.16,337.10"  stroke="rgb(0, 0, 0)" stroke-width="15.00" stroke-opacity="1.00" stroke-linejoin="round"/>
<path d="M748.90,62.51 L742.37,112.43"  stroke="rgb(0, 0, 0)" stroke-width="15.00" stroke-opacity="1.00" stroke-linejoin="round"/>
<path d="M741.08,1510.67 L735.09,1460.68"  stroke="rgb(0, 0, 0)" stroke-width="15.00" stroke-opacity="1.00" stroke-linejoin="round"/>
<path d="M1431.39,1117.08 L1391.42,1086.46"  stroke="rgb(0, 0, 0)" stroke-width="15.00" stroke-opacity="1.00" stroke-linejoin="round"/>
<path d="M1434.92,463.54 L1394.62,493.72"  stroke="rgb(0, 0, 0)" stroke-width="15.00" stroke-opacity="1.00" stroke-linejoin="round"/>
<path d="M176.86,1180.84 L223.36,1161.54"  stroke="rgb(0, 0, 0)" stroke-width="15.00" stroke-opacity="1.00" stroke-linejoin="round"/>
<path d="M181.16,386.22 L227.44,406.03"  stroke="rgb(0, 0, 0)" stroke-width="15.00" stroke-opacity="1.00" stroke-linejoin="round"/>
<path d="M831.03,73.92 L981.43,200.63"  stroke="rgb(0, 0, 0)" stroke-width="15.00" stroke-opacity="1.00" stroke-linejoin="round"/>
<path d="M823.33,1500.14 L975.09,1375.07"  stroke="rgb(0, 0, 0)" stroke-width="15.00" stroke-opacity="1.00" stroke-linejoin="round"/>
<path d="M1380.44,1182.50 L1195.51,1249.39"  stroke="rgb(0, 0, 0)" stroke-width="15.00" stroke-opacity="1.00" stroke-linejoin="round"/>
<path d="M1384.68,397.57 L1200.48,328.68"  stroke="rgb(0, 0, 0)" stroke-width="15.00" stroke-opacity="1.00" stroke-linejoin="round"/>
<path d="M145.68,1104.01 L180.22,910.41"  stroke="rgb(0, 0, 0)" stroke-width="15.00" stroke-opacity="1.00" stroke-linejoin="round"/>
<path d="M149.15,462.72 L181.59,656.68"  stroke="rgb(0, 0, 0)" stroke-width="15.00" stroke-opacity="1.00" stroke-linejoin="round"/>
<path d="M830.20,89.22 L952.46,184.47"  stroke="rgb(0, 0, 0)" stroke-width="15.00" stroke-opacity="1.00" stroke-linejoin="round"/>
<path d="M822.67,1484.83 L945.95,1390.91"  stroke="rgb(0, 0, 0)" stroke-width="15.00" stroke-opacity="1.00" stroke-linejoin="round"/>
<path d="M1367.60,1174.13 L1223.99,1232.38"  stroke="rgb(0, 0, 0)" stroke-width="15.00" stroke-opacity="1.00" stroke-linejoin="round"/>
<path d="M1371.75,405.80 L1228.77,346.00"  stroke="rgb(0, 0, 0)" stroke-width="15.00" stroke-opacity="1.00" stroke-linejoin="round"/>
<path d="M159.35,1097.08 L180.71,943.57"  stroke="rgb(0, 0, 0)" stroke-width="15.00" stroke-opacity="1.00" stroke-linejoin="round"/>
<path d="M162.74,469.79 L182.43,623.52"  stroke="rgb(0, 0, 0)" stroke-width="15.00" stroke-opacity="1.00" stroke-linejoin="round"/>
<path d="M826.14,109.35 L927.64,176.03"  stroke="rgb(0, 0, 0)" stroke-width="15.00" stroke-opacity="1.00" stroke-linejoin="round"/>
<path d="M818.82,1464.66 L921.03,1399.08"  stroke="rgb(0, 0, 0)" stroke-width="15.00" stroke-opacity="1.00" stroke-linejoin="round"/>
<path d="M1352.20,1160.55 L1243.71,1215.10"  stroke="rgb(0, 0, 0)" stroke-width="15.00" stroke-opacity="1.00" stroke-linejoin="round"/>
<path d="M1356.21,419.22 L1248.31,363.49"  stroke="rgb(0, 0, 0)" stroke-width="15.00" stroke-opacity="1.00" stroke-linejoin="round"/>
<path d="M178.81,1090.53 L185.81,969.29"  stroke="rgb(0, 0, 0)" stroke-width="15.00" stroke-opacity="1.00" stroke-linejoin="round"/>
<path d="M182.13,476.55 L187.82,597.86"  stroke="rgb(0, 0, 0)" stroke-width="15.00" stroke-opacity="1.00" stroke-linejoin="round"/>
<path d="M833.41,98.90 L882.34,144.77"  stroke="rgb(0, 0, 0)" stroke-width="15.00" stroke-opacity="1.00" stroke-linejoin="round"/>
<path d="M825.97,1475.20 L875.40,1429.86"  stroke="rgb(0, 0, 0)" stroke-width="15.00" stroke-opacity="1.00" stroke-linejoin="round"/>
<path d="M1357.63,1172.07 L1293.43,1191.51"  stroke="rgb(0, 0, 0)" stroke-width="15.00" stroke-opacity="1.00" stroke-linejoin="round"/>
<path d="M1361.75,407.75 L1297.77,387.62"  stroke="rgb(0, 0, 0)" stroke-width="15.00" stroke-opacity="1.00" stroke-linejoin="round"/>
<path d="M166.12,1089.47 L181.38,1024.15"  stroke="rgb(0, 0, 0)" stroke-width="15.00" stroke-opacity="1.00" stroke-linejoin="round"/>
<path d="M169.43,477.48 L183.98,542.95"  stroke="rgb(0, 0, 0)" stroke-width="15.00" stroke-opacity="1.00" stroke-linejoin="round"/>
<path d="M821.28,125.45 L851.05,142.42"  stroke="rgb(0, 0, 0)" stroke-width="15.00" stroke-opacity="1.00" stroke-linejoin="round"/>
<path d="M814.14,1448.51 L844.09,1431.87"  stroke="rgb(0, 0, 0)" stroke-width="15.00" stroke-opacity="1.00" stroke-linejoin="round"/>
<path d="M1340.69,1148.29 L1311.11,1165.59"  stroke="rgb(0, 0, 0)" stroke-width="15.00" stroke-opacity="1.00" stroke-linejoin="round"/>
<path d="M1344.56,431.35 L1315.17,413.73"  stroke="rgb(0, 0, 0)" stroke-width="15.00" stroke-opacity="1.00" stroke-linejoin="round"/>
<path d="M195.19,1086.69 L194.99,1052.42"  stroke="rgb(0, 0, 0)" stroke-width="15.00" stroke-opacity="1.00" stroke-linejoin="round"/>
<path d="M198.46,480.57 L197.90,514.83"  stroke="rgb(0, 0, 0)" stroke-width="15.00" stroke-opacity="1.00" stroke-linejoin="round"/>
<path d="M1390.07,499.33 L1389.23,517.85"  stroke="rgb(0, 0, 0)" stroke-width="15.00" stroke-opacity="1.00" stroke-linejoin="round"/>
<path d="M1386.93,1080.81 L1386.29,1062.27"  stroke="rgb(0, 0, 0)" stroke-width="15.00" stroke-opacity="1.00" stroke-linejoin="round"/>
<path d="M732.51,1453.94 L716.89,1443.95"  stroke="rgb(0, 0, 0)" stroke-width="15.00" stroke-opacity="1.00" stroke-linejoin="round"/>
<path d="M739.72,119.15 L723.99,128.96"  stroke="rgb(0, 0, 0)" stroke-width="15.00" stroke-opacity="1.00" stroke-linejoin="round"/>
<path d="M234.57,407.17 L251.03,398.63"  stroke="rgb(0, 0, 0)" stroke-width="15.00" stroke-opacity="1.00" stroke-linejoin="round"/>
<path d="M230.50,1160.48 L246.87,1169.19"  stroke="rgb(0, 0, 0)" stroke-width="15.00" stroke-opacity="1.00" stroke-linejoin="round"/>
<path d="M1197.85,338.72 L1199.97,339.83"  stroke="rgb(0, 0, 0)" stroke-width="15.00" stroke-opacity="1.00" stroke-linejoin="round"/>
<path d="M1192.99,1239.32 L1195.12,1238.24"  stroke="rgb(0, 0, 0)" stroke-width="15.00" stroke-opacity="1.00" stroke-linejoin="round"/>
<path d="M967.71,1367.77 L965.69,1369.05"  stroke="rgb(0, 0, 0)" stroke-width="15.00" stroke-opacity="1.00" stroke-linejoin="round"/>
<path d="M973.97,207.85 L971.97,206.55"  stroke="rgb(0, 0, 0)" stroke-width="15.00" stroke-opacity="1.00" stroke-linejoin="round"/>
<path d="M191.60,653.94 L191.50,651.55"  stroke="rgb(0, 0, 0)" stroke-width="15.00" stroke-opacity="1.00" stroke-linejoin="round"/>
<path d="M190.20,913.26 L190.07,915.64"  stroke="rgb(0, 0, 0)" stroke-width="15.00" stroke-opacity="1.00" stroke-linejoin="round"/>
<path d="M1345.10,420.32 L1325.79,412.23"  stroke="rgb(0, 0, 0)" stroke-width="15.00" stroke-opacity="1.00" stroke-linejoin="round"/>
<path d="M1341.11,1159.32 L1321.71,1167.20"  stroke="rgb(0, 0, 0)" stroke-width="15.00" stroke-opacity="1.00" stroke-linejoin="round"/>
<path d="M823.42,1454.50 L840.08,1441.81"  stroke="rgb(0, 0, 0)" stroke-width="15.00" stroke-opacity="1.00" stroke-linejoin="round"/>
<path d="M830.63,119.57 L847.15,132.43"  stroke="rgb(0, 0, 0)" stroke-width="15.00" stroke-opacity="1.00" stroke-linejoin="round"/>
<path d="M188.64,485.61 L191.29,506.39"  stroke="rgb(0, 0, 0)" stroke-width="15.00" stroke-opacity="1.00" stroke-linejoin="round"/>
<path d="M185.42,1081.54 L188.30,1060.80"  stroke="rgb(0, 0, 0)" stroke-width="15.00" stroke-opacity="1.00" stroke-linejoin="round"/>
<path d="M1024.04,722.61 L1017.51,768.42"  stroke="rgb(0, 0, 0)" stroke-width="15.00" stroke-opacity="1.00" stroke-linejoin="round"/>
<path d="M1023.33,853.58 L1017.30,807.70"  stroke="rgb(0, 0, 0)" stroke-width="15.00" stroke-opacity="1.00" stroke-linejoin="round"/>
<path d="M722.16,1025.30 L685.74,996.74"  stroke="rgb(0, 0, 0)" stroke-width="15.00" stroke-opacity="1.00" stroke-linejoin="round"/>
<path d="M724.74,547.65 L688.02,575.81"  stroke="rgb(0, 0, 0)" stroke-width="15.00" stroke-opacity="1.00" stroke-linejoin="round"/>
<path d="M610.96,612.52 L653.90,595.26"  stroke="rgb(0, 0, 0)" stroke-width="15.00" stroke-opacity="1.00" stroke-linejoin="round"/>
<path d="M609.09,959.20 L651.84,976.92"  stroke="rgb(0, 0, 0)" stroke-width="15.00" stroke-opacity="1.00" stroke-linejoin="round"/>
<path d="M859.21,554.00 L892.96,602.05"  stroke="rgb(0, 0, 0)" stroke-width="15.00" stroke-opacity="1.00" stroke-linejoin="round"/>
<path d="M856.69,1020.40 L890.96,972.71"  stroke="rgb(0, 0, 0)" stroke-width="15.00" stroke-opacity="1.00" stroke-linejoin="round"/>
<path d="M950.59,966.86 L892.10,972.06"  stroke="rgb(0, 0, 0)" stroke-width="15.00" stroke-opacity="1.00" stroke-linejoin="round"/>
<path d="M952.53,608.55 L894.10,602.72"  stroke="rgb(0, 0, 0)" stroke-width="15.00" stroke-opacity="1.00" stroke-linejoin="round"/>
<path d="M547.35,839.57 L572.09,786.32"  stroke="rgb(0, 0, 0)" stroke-width="15.00" stroke-opacity="1.00" stroke-linejoin="round"/>
<path d="M547.93,731.48 L572.10,785.00"  stroke="rgb(0, 0, 0)" stroke-width="15.00" stroke-opacity="1.00" stroke-linejoin="round"/>
<path d="M873.69,566.91 L894.81,596.02"  stroke="rgb(0, 0, 0)" stroke-width="15.00" stroke-opacity="1.00" stroke-linejoin="round"/>
<path d="M871.31,1007.65 L892.75,978.77"  stroke="rgb(0, 0, 0)" stroke-width="15.00" stroke-opacity="1.00" stroke-linejoin="round"/>
<path d="M932.17,972.94 L896.40,976.69"  stroke="rgb(0, 0, 0)" stroke-width="15.00" stroke-opacity="1.00" stroke-linejoin="round"/>
<path d="M934.18,602.27 L898.45,598.14"  stroke="rgb(0, 0, 0)" stroke-width="15.00" stroke-opacity="1.00" stroke-linejoin="round"/>
<path d="M551.29,820.58 L565.94,787.73"  stroke="rgb(0, 0, 0)" stroke-width="15.00" stroke-opacity="1.00" stroke-linejoin="round"/>
<path d="M551.67,750.51 L565.96,783.52"  stroke="rgb(0, 0, 0)" stroke-width="15.00" stroke-opacity="1.00" stroke-linejoin="round"/>
<path d="M979.93,612.19 L939.98,606.00"  stroke="rgb(0, 0, 0)" stroke-width="15.00" stroke-opacity="1.00" stroke-linejoin="round"/>
<path d="M978.03,963.52 L938.02,969.28"  stroke="rgb(0, 0, 0)" stroke-width="15.00" stroke-opacity="1.00" stroke-linejoin="round"/>
<path d="M839.84,1042.31 L865.17,1010.81"  stroke="rgb(0, 0, 0)" stroke-width="15.00" stroke-opacity="1.00" stroke-linejoin="round"/>
<path d="M842.60,531.91 L867.59,563.68"  stroke="rgb(0, 0, 0)" stroke-width="15.00" stroke-opacity="1.00" stroke-linejoin="round"/>
<path d="M537.39,705.93 L552.00,743.62"  stroke="rgb(0, 0, 0)" stroke-width="15.00" stroke-opacity="1.00" stroke-linejoin="round"/>
<path d="M536.53,865.00 L551.55,827.47"  stroke="rgb(0, 0, 0)" stroke-width="15.00" stroke-opacity="1.00" stroke-linejoin="round"/>
<path d="M690.05,569.82 L669.87,596.36"  stroke="rgb(0, 0, 0)" stroke-width="15.00" stroke-opacity="1.00" stroke-linejoin="round"/>
<path d="M687.71,1002.76 L667.82,976.00"  stroke="rgb(0, 0, 0)" stroke-width="15.00" stroke-opacity="1.00" stroke-linejoin="round"/>
<path d="M1021.47,812.45 L1008.58,781.71"  stroke="rgb(0, 0, 0)" stroke-width="15.00" stroke-opacity="1.00" stroke-linejoin="round"/>
<path d="M1021.74,763.71 L1008.51,794.32"  stroke="rgb(0, 0, 0)" stroke-width="15.00" stroke-opacity="1.00" stroke-linejoin="round"/>
<path d="M645.63,978.16 L678.71,982.36"  stroke="rgb(0, 0, 0)" stroke-width="15.00" stroke-opacity="1.00" stroke-linejoin="round"/>
<path d="M647.71,593.96 L680.83,590.11"  stroke="rgb(0, 0, 0)" stroke-width="15.00" stroke-opacity="1.00" stroke-linejoin="round"/>
<path d="M665.83,601.99 L639.57,603.07"  stroke="rgb(0, 0, 0)" stroke-width="15.00" stroke-opacity="1.00" stroke-linejoin="round"/>
<path d="M663.84,970.32 L637.59,968.96"  stroke="rgb(0, 0, 0)" stroke-width="15.00" stroke-opacity="1.00" stroke-linejoin="round"/>
<path d="M1005.72,775.39 L1017.92,752.11"  stroke="rgb(0, 0, 0)" stroke-width="15.00" stroke-opacity="1.00" stroke-linejoin="round"/>
<path d="M1005.58,800.60 L1017.53,824.02"  stroke="rgb(0, 0, 0)" stroke-width="15.00" stroke-opacity="1.00" stroke-linejoin="round"/>
<path d="M685.61,983.04 L699.67,1005.25"  stroke="rgb(0, 0, 0)" stroke-width="15.00" stroke-opacity="1.00" stroke-linejoin="round"/>
<path d="M687.73,589.51 L702.03,567.45"  stroke="rgb(0, 0, 0)" stroke-width="15.00" stroke-opacity="1.00" stroke-linejoin="round"/>
<path d="M187.94,513.74 L189.91,540.27"  stroke="rgb(0, 0, 0)" stroke-width="15.00" stroke-opacity="1.00" stroke-linejoin="round"/>
<path d="M185.03,1053.40 L187.28,1026.89"  stroke="rgb(0, 0, 0)" stroke-width="15.00" stroke-opacity="1.00" stroke-linejoin="round"/>
<path d="M1321.09,405.65 L1297.13,394.09"  stroke="rgb(0, 0, 0)" stroke-width="15.00" stroke-opacity="1.00" stroke-linejoin="round"/>
<path d="M1316.94,1173.73 L1292.86,1185.03"  stroke="rgb(0, 0, 0)" stroke-width="15.00" stroke-opacity="1.00" stroke-linejoin="round"/>
<path d="M848.13,1441.03 L870.12,1426.07"  stroke="rgb(0, 0, 0)" stroke-width="15.00" stroke-opacity="1.00" stroke-linejoin="round"/>
<path d="M855.19,133.30 L877.02,148.50"  stroke="rgb(0, 0, 0)" stroke-width="15.00" stroke-opacity="1.00" stroke-linejoin="round"/>
<path d="M1383.41,881.06 L1402.42,942.71"  stroke="rgb(0, 0, 0)" stroke-width="15.00" stroke-opacity="1.00" stroke-linejoin="round"/>
<path d="M1384.39,699.02 L1404.07,637.58"  stroke="rgb(0, 0, 0)" stroke-width="15.00" stroke-opacity="1.00" stroke-linejoin="round"/>
<path d="M405.25,1257.30 L342.36,1242.94"  stroke="rgb(0, 0, 0)" stroke-width="15.00" stroke-opacity="1.00" stroke-linejoin="round"/>
<path d="M410.35,312.24 L347.31,325.91"  stroke="rgb(0, 0, 0)" stroke-width="15.00" stroke-opacity="1.00" stroke-linejoin="round"/>
<path d="M568.50,222.07 L612.38,174.78"  stroke="rgb(0, 0, 0)" stroke-width="15.00" stroke-opacity="1.00" stroke-linejoin="round"/>
<path d="M562.41,1349.17 L605.78,1396.93"  stroke="rgb(0, 0, 0)" stroke-width="15.00" stroke-opacity="1.00" stroke-linejoin="round"/>
<path d="M994.93,959.08 L981.95,960.40"  stroke="rgb(0, 0, 0)" stroke-width="15.00" stroke-opacity="1.00" stroke-linejoin="round"/>
<path d="M556.78,796.11 L552.45,773.76"  stroke="rgb(0, 0, 0)" stroke-width="15.00" stroke-opacity="1.00" stroke-linejoin="round"/>
<path d="M794.11,461.57 L776.33,476.73"  stroke="rgb(0, 0, 0)" stroke-width="15.00" stroke-opacity="1.00" stroke-linejoin="round"/>
<path d="M1210.87,340.94 L1212.46,340.52"  stroke="rgb(0, 0, 0)" stroke-width="15.00" stroke-opacity="1.00" stroke-linejoin="round"/>
</g>
</svg>
